<mxfile host="app.diagrams.net" agent="Mozilla/5.0 (Windows NT 10.0; Win64; x64) AppleWebKit/537.36 (KHTML, like Gecko) Chrome/135.0.0.0 Safari/537.36" version="26.2.12">
  <diagram name="Page-1" id="QU0JBHvWf7eKoO7Km59g">
    <mxGraphModel dx="1093" dy="591" grid="1" gridSize="10" guides="1" tooltips="1" connect="1" arrows="1" fold="1" page="1" pageScale="1" pageWidth="827" pageHeight="1169" math="0" shadow="0">
      <root>
        <mxCell id="0" />
        <mxCell id="1" parent="0" />
        <mxCell id="Yd2-J-lwk3KXjk202QaP-1" value="&lt;div&gt;User&lt;/div&gt;" style="shape=umlActor;verticalLabelPosition=bottom;verticalAlign=top;html=1;outlineConnect=0;" vertex="1" parent="1">
          <mxGeometry x="80" y="320" width="70" height="140" as="geometry" />
        </mxCell>
        <mxCell id="Yd2-J-lwk3KXjk202QaP-2" value="Admin" style="shape=umlActor;verticalLabelPosition=bottom;verticalAlign=top;html=1;outlineConnect=0;" vertex="1" parent="1">
          <mxGeometry x="690" y="310" width="70" height="140" as="geometry" />
        </mxCell>
        <mxCell id="Yd2-J-lwk3KXjk202QaP-5" value="&lt;font style=&quot;font-size: 10px;&quot;&gt;USECASE DIAGRAM WEBSITE PRESENSI PKL&lt;/font&gt;" style="swimlane;whiteSpace=wrap;html=1;" vertex="1" parent="1">
          <mxGeometry x="240" y="130" width="360" height="440" as="geometry">
            <mxRectangle x="280" width="140" height="30" as="alternateBounds" />
          </mxGeometry>
        </mxCell>
        <mxCell id="Yd2-J-lwk3KXjk202QaP-10" value="Login" style="ellipse;whiteSpace=wrap;html=1;" vertex="1" parent="Yd2-J-lwk3KXjk202QaP-5">
          <mxGeometry x="140" y="30" width="80" height="40" as="geometry" />
        </mxCell>
        <mxCell id="Yd2-J-lwk3KXjk202QaP-14" value="Verifikasi" style="ellipse;whiteSpace=wrap;html=1;" vertex="1" parent="Yd2-J-lwk3KXjk202QaP-5">
          <mxGeometry x="60" y="80" width="80" height="40" as="geometry" />
        </mxCell>
        <mxCell id="Yd2-J-lwk3KXjk202QaP-15" value="Logout" style="ellipse;whiteSpace=wrap;html=1;" vertex="1" parent="Yd2-J-lwk3KXjk202QaP-5">
          <mxGeometry x="140" y="120" width="80" height="40" as="geometry" />
        </mxCell>
        <mxCell id="Yd2-J-lwk3KXjk202QaP-16" value="" style="endArrow=none;dashed=1;html=1;rounded=0;entryX=0;entryY=0.5;entryDx=0;entryDy=0;" edge="1" parent="Yd2-J-lwk3KXjk202QaP-5" target="Yd2-J-lwk3KXjk202QaP-10">
          <mxGeometry width="50" height="50" relative="1" as="geometry">
            <mxPoint x="100" y="80" as="sourcePoint" />
            <mxPoint x="140" y="30" as="targetPoint" />
          </mxGeometry>
        </mxCell>
        <mxCell id="Yd2-J-lwk3KXjk202QaP-19" value="&lt;font style=&quot;font-size: 5px;&quot;&gt;Extend&lt;/font&gt;" style="text;html=1;align=center;verticalAlign=middle;whiteSpace=wrap;rounded=0;" vertex="1" parent="Yd2-J-lwk3KXjk202QaP-5">
          <mxGeometry x="100" y="50" width="30" height="10" as="geometry" />
        </mxCell>
        <mxCell id="Yd2-J-lwk3KXjk202QaP-21" value="" style="endArrow=none;html=1;rounded=0;" edge="1" parent="Yd2-J-lwk3KXjk202QaP-5">
          <mxGeometry width="50" height="50" relative="1" as="geometry">
            <mxPoint x="220" y="50" as="sourcePoint" />
            <mxPoint x="430" y="210" as="targetPoint" />
          </mxGeometry>
        </mxCell>
        <mxCell id="Yd2-J-lwk3KXjk202QaP-22" value="" style="endArrow=none;html=1;rounded=0;" edge="1" parent="Yd2-J-lwk3KXjk202QaP-5">
          <mxGeometry width="50" height="50" relative="1" as="geometry">
            <mxPoint x="220" y="140" as="sourcePoint" />
            <mxPoint x="420" y="220" as="targetPoint" />
          </mxGeometry>
        </mxCell>
        <mxCell id="Yd2-J-lwk3KXjk202QaP-23" value="Form Data PKL" style="ellipse;whiteSpace=wrap;html=1;" vertex="1" parent="Yd2-J-lwk3KXjk202QaP-5">
          <mxGeometry x="125" y="180" width="110" height="40" as="geometry" />
        </mxCell>
        <mxCell id="Yd2-J-lwk3KXjk202QaP-24" value="Riwayat Data PKL" style="ellipse;whiteSpace=wrap;html=1;" vertex="1" parent="Yd2-J-lwk3KXjk202QaP-5">
          <mxGeometry x="125" y="240" width="110" height="40" as="geometry" />
        </mxCell>
        <mxCell id="Yd2-J-lwk3KXjk202QaP-25" value="Form Presensi" style="ellipse;whiteSpace=wrap;html=1;" vertex="1" parent="Yd2-J-lwk3KXjk202QaP-5">
          <mxGeometry x="125" y="300" width="110" height="40" as="geometry" />
        </mxCell>
        <mxCell id="Yd2-J-lwk3KXjk202QaP-26" value="Riwayat Presensi" style="ellipse;whiteSpace=wrap;html=1;" vertex="1" parent="Yd2-J-lwk3KXjk202QaP-5">
          <mxGeometry x="125" y="360" width="110" height="40" as="geometry" />
        </mxCell>
        <mxCell id="Yd2-J-lwk3KXjk202QaP-28" value="" style="endArrow=none;html=1;rounded=0;exitX=0.985;exitY=0.588;exitDx=0;exitDy=0;exitPerimeter=0;" edge="1" parent="Yd2-J-lwk3KXjk202QaP-5" source="Yd2-J-lwk3KXjk202QaP-23">
          <mxGeometry width="50" height="50" relative="1" as="geometry">
            <mxPoint x="230" y="210" as="sourcePoint" />
            <mxPoint x="410" y="230" as="targetPoint" />
          </mxGeometry>
        </mxCell>
        <mxCell id="Yd2-J-lwk3KXjk202QaP-29" value="" style="endArrow=none;html=1;rounded=0;exitX=1.004;exitY=0.533;exitDx=0;exitDy=0;exitPerimeter=0;" edge="1" parent="Yd2-J-lwk3KXjk202QaP-5" source="Yd2-J-lwk3KXjk202QaP-24">
          <mxGeometry width="50" height="50" relative="1" as="geometry">
            <mxPoint x="230" y="270" as="sourcePoint" />
            <mxPoint x="410" y="250" as="targetPoint" />
          </mxGeometry>
        </mxCell>
        <mxCell id="Yd2-J-lwk3KXjk202QaP-30" value="" style="endArrow=none;html=1;rounded=0;exitX=0.997;exitY=0.565;exitDx=0;exitDy=0;exitPerimeter=0;" edge="1" parent="Yd2-J-lwk3KXjk202QaP-5" source="Yd2-J-lwk3KXjk202QaP-25">
          <mxGeometry width="50" height="50" relative="1" as="geometry">
            <mxPoint x="230" y="330" as="sourcePoint" />
            <mxPoint x="410" y="270" as="targetPoint" />
          </mxGeometry>
        </mxCell>
        <mxCell id="Yd2-J-lwk3KXjk202QaP-31" value="" style="endArrow=none;html=1;rounded=0;exitX=1.002;exitY=0.558;exitDx=0;exitDy=0;exitPerimeter=0;" edge="1" parent="Yd2-J-lwk3KXjk202QaP-5" source="Yd2-J-lwk3KXjk202QaP-26">
          <mxGeometry width="50" height="50" relative="1" as="geometry">
            <mxPoint x="230" y="390" as="sourcePoint" />
            <mxPoint x="430" y="290" as="targetPoint" />
          </mxGeometry>
        </mxCell>
        <mxCell id="Yd2-J-lwk3KXjk202QaP-32" value="" style="endArrow=none;html=1;rounded=0;entryX=-0.003;entryY=0.543;entryDx=0;entryDy=0;entryPerimeter=0;" edge="1" parent="Yd2-J-lwk3KXjk202QaP-5" target="Yd2-J-lwk3KXjk202QaP-26">
          <mxGeometry width="50" height="50" relative="1" as="geometry">
            <mxPoint x="-70" y="260" as="sourcePoint" />
            <mxPoint x="120" y="380" as="targetPoint" />
          </mxGeometry>
        </mxCell>
      </root>
    </mxGraphModel>
  </diagram>
</mxfile>
